<?xml version="1.0" standalone="no"?>
<!DOCTYPE svg PUBLIC "-//W3C//DTD SVG 20010904//EN" "http://www.w3.org/TR/2001/REC-SVG-20010904/DTD/svg10.dtd">
<svg version="1.0" xmlns="http://www.w3.org/2000/svg" width="1024.000000pt" height="1024.000000pt"
        viewBox="0 0 1024.000000 1024.000000" preserveAspectRatio="xMidYMid meet">

        <g transform="translate(0.000000,1024.000000) scale(0.100000,-0.100000)" fill="#FFFFFF" stroke="none">
                <path d="M0 5120 l0 -5120 5120 0 5120 0 0 5120 0 5120 -5120 0 -5120 0 0
-5120z m7532 2678 c2 -238 2 -435 1 -437 -2 -2 -20 14 -40 36 -85 89 -198 141
-328 149 -72 5 -116 -2 -425 -66 -190 -39 -405 -83 -477 -98 l-133 -26 -3
-1586 -3 -1585 -23 -90 c-58 -218 -152 -394 -292 -542 -200 -212 -417 -335
-734 -417 -188 -49 -299 -61 -585 -61 -232 0 -281 3 -392 23 -271 49 -548 148
-703 252 -16 11 -34 20 -40 20 -5 -1 -2 -5 8 -11 15 -9 16 -13 5 -26 -10 -13
-9 -18 10 -33 l23 -19 -31 1 c-39 1 -43 -3 -43 -52 0 -34 -3 -40 -21 -40 -17
0 -18 -2 -6 -10 13 -9 13 -11 0 -20 -10 -6 -11 -10 -2 -10 6 0 12 -5 12 -10 0
-7 -7 -7 -20 0 -11 6 -19 18 -18 27 2 9 -4 18 -12 20 -13 4 -13 3 0 -6 30 -22
-2 -10 -41 14 -23 15 -37 30 -33 37 4 6 3 8 -4 4 -15 -9 -151 130 -213 216
-152 216 -219 438 -206 685 7 150 30 240 92 368 86 176 205 302 360 379 111
55 181 70 330 70 116 0 138 -3 210 -28 44 -15 99 -38 122 -52 229 -133 359
-409 294 -622 -38 -126 -119 -211 -234 -248 -31 -10 -107 -19 -187 -23 l-135
-6 55 -54 c133 -132 331 -223 580 -267 134 -24 452 -24 575 0 403 78 634 264
727 586 l22 75 3 1473 c2 809 2 1472 1 1472 -7 0 -176 -34 -448 -90 -162 -34
-338 -70 -390 -80 -160 -32 -265 -58 -321 -80 -130 -52 -264 -171 -354 -314
-26 -42 -53 -76 -61 -76 -12 0 -14 72 -14 455 0 250 2 455 6 455 3 0 105 20
227 44 122 25 634 126 1137 226 1303 258 1426 282 1800 359 184 38 343 69 352
70 16 1 18 -29 20 -431z m-3932 -710 l-1 -213 -46 -35 c-80 -60 -292 -270
-378 -375 -262 -319 -445 -704 -524 -1101 -31 -154 -51 -346 -51 -483 0 -60
-4 -82 -16 -92 -28 -23 -95 -129 -129 -203 -46 -98 -76 -223 -83 -341 l-5
-100 -24 85 c-95 347 -109 818 -38 1205 80 426 282 858 575 1225 163 203 446
466 639 592 40 26 75 48 77 48 2 0 4 -96 4 -212z m2871 91 c52 -42 105 -86
118 -97 l23 -21 2 -1203 c2 -1447 -2 -1656 -38 -1820 -73 -339 -209 -598 -441
-837 -331 -342 -734 -526 -1286 -587 -186 -21 -579 -15 -714 10 -312 59 -538
150 -754 305 -123 89 -274 229 -267 248 3 8 2 12 -3 9 -9 -6 -39 24 -67 68
l-19 29 30 -19 c17 -10 35 -23 42 -29 33 -27 39 -31 56 -38 11 -4 15 -12 11
-18 -4 -7 -3 -9 3 -6 6 4 40 -13 75 -36 230 -155 497 -241 858 -278 159 -17
594 -17 725 -1 378 47 679 167 940 377 240 192 423 456 500 720 14 50 35 142
46 205 19 110 20 169 23 1425 5 1866 2 1700 25 1684 10 -8 61 -48 112 -90z
m1172 -837 c28 -31 153 -302 196 -424 112 -324 161 -614 161 -958 0 -337 -48
-627 -160 -957 -191 -566 -562 -1069 -1055 -1428 -581 -424 -1303 -627 -2005
-565 -119 11 -240 30 -240 39 0 10 89 94 190 180 l95 81 156 0 c499 0 1054
167 1459 438 185 125 283 204 436 357 313 312 526 652 654 1047 216 664 157
1391 -163 2012 l-41 79 49 44 c64 59 96 71 181 72 56 1 74 -3 87 -17z m-4046
-269 c-3 -2 -87 -27 -187 -54 -160 -44 -186 -49 -212 -38 -35 14 -48 37 -48
83 0 61 1 61 275 130 l170 42 3 -79 c2 -44 1 -81 -1 -84z m1588 5 c-4 -46 -10
-86 -14 -89 -3 -3 -150 -43 -326 -89 -300 -78 -510 -133 -1205 -314 -268 -71
-521 -135 -582 -150 l-28 -6 0 83 0 84 123 33 c67 18 178 47 247 65 293 77
567 149 745 196 105 27 341 88 525 136 184 47 373 96 420 108 47 13 89 24 94
24 4 1 5 -36 1 -81z m-5 -703 l0 -84 -52 -15 c-104 -30 -347 -95 -561 -150
l-219 -57 -36 27 c-46 35 -52 43 -52 75 0 51 -12 47 590 203 118 31 238 63
265 70 28 8 53 15 58 15 4 1 7 -37 7 -84z m6 -402 c-4 -48 -8 -88 -9 -89 -10
-5 -541 -146 -569 -151 -29 -4 -38 -2 -38 8 0 8 -16 40 -35 73 -20 32 -34 60
-32 62 2 2 141 40 308 84 167 44 318 84 334 89 17 5 34 10 39 10 5 1 6 -37 2
-86z m4 -575 c0 -40 -4 -79 -8 -86 -5 -7 -83 -33 -173 -58 -164 -45 -433 -114
-443 -114 -4 0 -6 37 -6 83 l0 83 303 81 c166 45 308 82 315 82 8 1 12 -20 12
-71z m-1783 -1090 c-5 -3 -16 -4 -24 -1 -10 4 -11 9 -2 19 8 10 14 11 24 1 8
-8 9 -14 2 -19z m-47 -128 c0 -5 -2 -10 -4 -10 -3 0 -8 5 -11 10 -3 6 -1 10 4
10 6 0 11 -4 11 -10z" />
                <path d="M3633 4409 c-95 -37 -139 -125 -117 -236 l6 -30 40 20 c33 17 71 21
222 28 197 8 255 20 338 67 l53 31 -116 56 c-177 84 -317 106 -426 64z" />
                <path d="M3235 3460 c10 -11 20 -20 23 -20 3 0 -3 9 -13 20 -10 11 -20 20 -23
20 -3 0 3 -9 13 -20z" />
                <path d="M3270 3437 c0 -2 16 -18 35 -36 19 -17 35 -28 35 -24 0 5 -16 21 -35
36 -19 15 -35 26 -35 24z" />
                <path d="M3293 3244 c-1 -40 11 -35 21 9 4 19 2 27 -7 27 -8 0 -13 -13 -14
-36z" />
        </g>
</svg>