<?xml version="1.0" encoding="utf-8"?>
<!-- Generator: Adobe Adobe Illustrator 28.6.0, SVG Export Plug-In . SVG Version: 6.00 Build 0)  -->
<svg version="1.1" id="Layer_1" xmlns="http://www.w3.org/2000/svg" xmlns:xlink="http://www.w3.org/1999/xlink" x="0px" y="0px"
	 viewBox="0 0 1024 1024" style="enable-background:new 0 0 1024 1024;" xml:space="preserve">
<style type="text/css">
	.st0{stroke:#000000;stroke-miterlimit:10;}
</style>
<g transform="translate(0.000000,1024.000000) scale(0.100000,-0.100000)">
	<path class="st0" d="M0,5120V0h5120h5120v5120v5120H5120H0V5120z M7532,7798c2-238,2-435,1-437c-2-2-20,14-40,36
		c-85,89-198,141-328,149c-72,5-116-2-425-66c-190-39-405-83-477-98l-133-26l-3-1586l-3-1585l-23-90c-58-218-152-394-292-542
		c-200-212-417-335-734-417c-188-49-299-61-585-61c-232,0-281,3-392,23c-271,49-548,148-703,252c-16,11-34,20-40,20c-5-1-2-5,8-11
		c15-9,16-13,5-26c-10-13-9-18,10-33l23-19l-31,1c-39,1-43-3-43-52c0-34-3-40-21-40c-17,0-18-2-6-10c13-9,13-11,0-20
		c-10-6-11-10-2-10c6,0,12-5,12-10c0-7-7-7-20,0c-11,6-19,18-18,27c2,9-4,18-12,20c-13,4-13,3,0-6c30-22-2-10-41,14
		c-23,15-37,30-33,37c4,6,3,8-4,4c-15-9-151,130-213,216c-152,216-219,438-206,685c7,150,30,240,92,368c86,176,205,302,360,379
		c111,55,181,70,330,70c116,0,138-3,210-28c44-15,99-38,122-52c229-133,359-409,294-622c-38-126-119-211-234-248
		c-31-10-107-19-187-23l-135-6l55-54c133-132,331-223,580-267c134-24,452-24,575,0c403,78,634,264,727,586l22,75l3,1473
		c2,809,2,1472,1,1472c-7,0-176-34-448-90c-162-34-338-70-390-80c-160-32-265-58-321-80c-130-52-264-171-354-314c-26-42-53-76-61-76
		c-12,0-14,72-14,455c0,250,2,455,6,455c3,0,105,20,227,44c122,25,634,126,1137,226c1303,258,1426,282,1800,359
		c184,38,343,69,352,70C7528,8230,7530,8200,7532,7798z M3600,7088l-1-213l-46-35c-80-60-292-270-378-375c-262-319-445-704-524-1101
		c-31-154-51-346-51-483c0-60-4-82-16-92c-28-23-95-129-129-203c-46-98-76-223-83-341l-5-100l-24,85c-95,347-109,818-38,1205
		c80,426,282,858,575,1225c163,203,446,466,639,592c40,26,75,48,77,48S3600,7204,3600,7088z M6471,7179c52-42,105-86,118-97l23-21
		l2-1203c2-1447-2-1656-38-1820c-73-339-209-598-441-837c-331-342-734-526-1286-587c-186-21-579-15-714,10c-312,59-538,150-754,305
		c-123,89-274,229-267,248c3,8,2,12-3,9c-9-6-39,24-67,68l-19,29l30-19c17-10,35-23,42-29c33-27,39-31,56-38c11-4,15-12,11-18
		c-4-7-3-9,3-6c6,4,40-13,75-36c230-155,497-241,858-278c159-17,594-17,725-1c378,47,679,167,940,377c240,192,423,456,500,720
		c14,50,35,142,46,205c19,110,20,169,23,1425c5,1866,2,1700,25,1684C6369,7261,6420,7221,6471,7179z M7643,6342
		c28-31,153-302,196-424c112-324,161-614,161-958c0-337-48-627-160-957c-191-566-562-1069-1055-1428c-581-424-1303-627-2005-565
		c-119,11-240,30-240,39c0,10,89,94,190,180l95,81h156c499,0,1054,167,1459,438c185,125,283,204,436,357c313,312,526,652,654,1047
		c216,664,157,1391-163,2012l-41,79l49,44c64,59,96,71,181,72C7612,6360,7630,6356,7643,6342z M3597,6073c-3-2-87-27-187-54
		c-160-44-186-49-212-38c-35,14-48,37-48,83c0,61,1,61,275,130l170,42l3-79C3600,6113,3599,6076,3597,6073z M5185,6078
		c-4-46-10-86-14-89c-3-3-150-43-326-89c-300-78-510-133-1205-314c-268-71-521-135-582-150l-28-6v83v84l123,33c67,18,178,47,247,65
		c293,77,567,149,745,196c105,27,341,88,525,136c184,47,373,96,420,108c47,13,89,24,94,24C5188,6160,5189,6123,5185,6078z
		 M5180,5375v-84l-52-15c-104-30-347-95-561-150l-219-57l-36,27c-46,35-52,43-52,75c0,51-12,47,590,203c118,31,238,63,265,70
		c28,8,53,15,58,15C5177,5460,5180,5422,5180,5375z M5186,4973c-4-48-8-88-9-89c-10-5-541-146-569-151c-29-4-38-2-38,8
		c0,8-16,40-35,73c-20,32-34,60-32,62s141,40,308,84s318,84,334,89c17,5,34,10,39,10C5189,5060,5190,5022,5186,4973z M5190,4398
		c0-40-4-79-8-86c-5-7-83-33-173-58c-164-45-433-114-443-114c-4,0-6,37-6,83v83l303,81c166,45,308,82,315,82
		C5186,4470,5190,4449,5190,4398z M3407,3308c-5-3-16-4-24-1c-10,4-11,9-2,19c8,10,14,11,24,1C3413,3319,3414,3313,3407,3308z
		 M3360,3180c0-5-2-10-4-10c-3,0-8,5-11,10c-3,6-1,10,4,10C3355,3190,3360,3186,3360,3180z"/>
	<path class="st0" d="M3633,4409c-95-37-139-125-117-236l6-30l40,20c33,17,71,21,222,28c197,8,255,20,338,67l53,31l-116,56
		C3882,4429,3742,4451,3633,4409z"/>
	<path class="st0" d="M3235,3460c10-11,20-20,23-20s-3,9-13,20s-20,20-23,20S3225,3471,3235,3460z"/>
	<path class="st0" d="M3270,3437c0-2,16-18,35-36c19-17,35-28,35-24c0,5-16,21-35,36S3270,3439,3270,3437z"/>
	<path class="st0" d="M3293,3244c-1-40,11-35,21,9c4,19,2,27-7,27C3299,3280,3294,3267,3293,3244z"/>
</g>
</svg>
